<?xml version="1.0" encoding="UTF-8"?>
<svg version="1.1" xmlns="http://www.w3.org/2000/svg" width="1024" height="1024">
<path d="M0 0 C337.92 0 675.84 0 1024 0 C1024 337.92 1024 675.84 1024 1024 C686.08 1024 348.16 1024 0 1024 C0 686.08 0 348.16 0 0 Z " fill="#1E2323" transform="translate(0,0)"/>
<path d="M0 0 C3.25362904 -0.00220452 6.50692786 -0.02047443 9.76049805 -0.03930664 C11.85489795 -0.04223839 13.94929943 -0.04422465 16.04370117 -0.04516602 C17.00327225 -0.05235153 17.96284332 -0.05953705 18.95149231 -0.06694031 C24.18175153 -0.04935636 28.89786366 0.44084366 33.97416687 1.70570374 C36.41071928 2.30305391 38.82682067 2.6088837 41.32104492 2.86108398 C42.2669751 2.96396729 43.21290527 3.06685059 44.1875 3.17285156 C45.66899536 3.33370239 45.66899536 3.33370239 47.18041992 3.49780273 C64.60797165 5.55228658 81.16103444 9.93911118 97.78442383 15.47143555 C99.22721908 15.95138245 100.67227244 16.42458865 102.11938477 16.89135742 C107.86284596 18.75921116 113.45837948 20.91922548 119.05541992 23.18530273 C119.91006836 23.52819336 120.7647168 23.87108398 121.64526367 24.22436523 C124.07710985 25.20308059 126.50463341 26.19167633 128.93041992 27.18530273 C130.06995117 27.65194336 131.20948242 28.11858398 132.38354492 28.59936523 C165.3934715 43.35931038 194.73684626 64.11014817 221.14526367 88.62280273 C223.64147287 90.91945524 226.17946202 93.15200672 228.74291992 95.37280273 C232.15678814 98.3944132 235.17652612 101.57710891 238.11791992 105.05639648 C240.16781127 107.46413524 242.29584032 109.78990915 244.43041992 112.12280273 C248.50673696 116.64204726 252.27308199 121.32371939 255.93041992 126.18530273 C256.39706055 126.7950293 256.86370117 127.40475586 257.34448242 128.03295898 C258.89264896 130.06979262 260.41264419 132.12571232 261.93041992 134.18530273 C263.00743164 135.62583008 263.00743164 135.62583008 264.10620117 137.09545898 C271.43526298 147.0267931 277.77154383 157.49711907 283.93041992 168.18530273 C284.30408691 168.83047852 284.67775391 169.4756543 285.06274414 170.14038086 C292.04213243 182.31505339 297.58695254 195.22795957 302.93041992 208.18530273 C303.36676758 209.24313965 303.80311523 210.30097656 304.25268555 211.39086914 C312.5830597 232.03035077 317.1050664 253.28346019 321.48907471 275.02484131 C322.09301642 277.98124083 322.73539513 280.92886325 323.37963867 283.87670898 C323.75243587 285.64588214 324.1237443 287.41537031 324.49291992 289.18530273 C324.64937988 289.88647217 324.80583984 290.5876416 324.96704102 291.31005859 C326.20546188 297.62092584 326.00673223 303.94343479 325.94970703 310.3425293 C325.91111512 315.54046578 326.02050423 320.73133817 326.14916992 325.92749023 C326.1714415 326.83847473 326.19371307 327.74945923 326.21665955 328.68804932 C326.28629282 331.47884413 326.35824169 334.2695727 326.43041992 337.06030273 C326.50223079 339.91104981 326.57345251 342.76181089 326.64440918 345.61257935 C326.6882957 347.36770178 326.73278275 349.12280933 326.7779541 350.87789917 C326.90900442 356.02136063 326.96664623 360.32931854 325.60620117 365.28686523 C323.74857206 372.53238053 322.62678702 379.83355557 321.48449707 387.21652222 C319.19773462 401.83737159 316.49146438 416.07900446 311.93041992 430.18530273 C311.56932129 431.30984863 311.20822266 432.43439453 310.83618164 433.59301758 C305.7628769 449.21230633 300.17904236 464.4378145 292.93041992 479.18530273 C292.47892578 480.12196777 292.02743164 481.05863281 291.56225586 482.02368164 C280.39209915 505.05133154 266.59173265 526.72065802 249.93041992 546.18530273 C249.30393555 546.92780273 248.67745117 547.67030273 248.03198242 548.43530273 C246.36099652 550.38086378 244.65388934 552.28612168 242.93041992 554.18530273 C242.18147461 555.02577148 241.4325293 555.86624023 240.66088867 556.73217773 C229.24482665 569.39767384 217.42275632 581.72262625 203.93041992 592.18530273 C202.73411081 593.1564362 201.54026556 594.13060966 200.34838867 595.10717773 C192.81364257 601.26355785 185.1981094 607.02993054 176.93041992 612.18530273 C176.23916016 612.6177832 175.54790039 613.05026367 174.83569336 613.49584961 C157.25338074 624.4369558 139.11830593 634.35727781 119.93041992 642.18530273 C118.46986183 642.86806362 117.01131958 643.5551639 115.55541992 644.24780273 C108.93805488 647.22064154 101.87466314 649.12991296 94.93041992 651.18530273 C93.70452148 651.55139648 92.47862305 651.91749023 91.21557617 652.29467773 C87.41649128 653.32463178 83.83686937 653.77409753 79.93041992 654.18530273 C79.93041992 654.84530273 79.93041992 655.50530273 79.93041992 656.18530273 C78.86823242 656.37866211 77.80604492 656.57202148 76.71166992 656.77124023 C75.28456216 657.03412851 73.8574802 657.29715687 72.43041992 657.56030273 C71.3862793 657.74979492 71.3862793 657.74979492 70.32104492 657.94311523 C66.92236452 658.57250049 63.60793584 659.27047425 60.26245117 660.15405273 C23.63222867 669.44749036 -20.27631268 668.65336911 -57.06958008 661.18530273 C-57.96805664 661.00386719 -58.8665332 660.82243164 -59.79223633 660.63549805 C-63.66449857 659.8338872 -67.51641683 658.97545358 -71.35864258 658.04077148 C-74.58732178 657.29647596 -77.725008 656.79092972 -81.00708008 656.37280273 C-88.05627667 655.28454012 -94.54368547 652.59860357 -101.16333008 650.03686523 C-104.71817471 648.6639093 -108.29923868 647.44361203 -111.92504883 646.27124023 C-118.07002531 644.24373965 -123.96985553 641.80846917 -129.88208008 639.18530273 C-131.49070923 638.47289429 -131.49070923 638.47289429 -133.13183594 637.74609375 C-165.28237961 623.31101139 -192.79283665 604.65665233 -219.35351562 581.66186523 C-220.54183302 580.63939495 -221.73646232 579.62423189 -222.93603516 578.61499023 C-225.98711793 576.04125493 -228.84129561 573.53081373 -231.38208008 570.43530273 C-234.09123352 567.24128961 -236.94612203 564.29711035 -239.94458008 561.37280273 C-245.08059665 556.29125906 -249.5893054 550.84459706 -254.06958008 545.18530273 C-254.74891602 544.34999023 -255.42825195 543.51467773 -256.12817383 542.65405273 C-280.56654109 512.54674647 -298.18690153 478.3994138 -311.07519531 441.95556641 C-311.88943395 439.68717314 -312.74832418 437.44878005 -313.63598633 435.20874023 C-320.44643293 417.12801224 -323.53480312 397.26067282 -326.06958008 378.18530273 C-326.21911133 377.11441406 -326.36864258 376.04352539 -326.52270508 374.94018555 C-330.10310428 348.78938189 -330.00813851 322.74798554 -327.69458008 296.49780273 C-327.63163757 295.77824402 -327.56869507 295.0586853 -327.50384521 294.31732178 C-326.85453267 287.09961927 -325.95938972 280.18913924 -324.06958008 273.18530273 C-323.72860571 271.24546513 -323.40595125 269.30236038 -323.09692383 267.35717773 C-320.49476384 251.26560176 -315.79313879 235.75844841 -310.50708008 220.37280273 C-310.275784 219.69584351 -310.04448792 219.01888428 -309.80618286 218.32141113 C-306.0164508 207.28349991 -301.47010664 196.77452288 -296.19458008 186.37280273 C-294.25303758 182.53954735 -292.31688351 178.71235286 -290.49145508 174.82202148 C-282.20854318 157.35679059 -270.99603698 141.33933755 -259.06958008 126.18530273 C-258.34899414 125.25202148 -257.6284082 124.31874023 -256.88598633 123.35717773 C-243.75373776 106.77430053 -228.29239257 90.78472362 -212.06958008 77.18530273 C-211.10793945 76.34612305 -210.14629883 75.50694336 -209.15551758 74.64233398 C-202.33423044 68.71555692 -195.32208653 63.33839368 -187.78491211 58.32983398 C-185.98386985 57.12811378 -184.19618329 55.90814416 -182.40942383 54.68530273 C-170.95282289 46.88433541 -159.11939129 40.0522686 -146.66162109 33.97387695 C-143.46906557 32.41307203 -140.38788355 30.79216857 -137.34692383 28.95092773 C-134.06958008 27.18530273 -134.06958008 27.18530273 -130.06958008 27.18530273 C-130.06958008 26.52530273 -130.06958008 25.86530273 -130.06958008 25.18530273 C-128.95583008 24.77280273 -127.84208008 24.36030273 -126.69458008 23.93530273 C-124.44729086 23.09937335 -122.21955022 22.24945346 -120.01489258 21.30639648 C-107.98253526 16.18943314 -95.03708216 12.62259634 -82.26977539 9.88378906 C-79.22065901 9.21827777 -76.18995847 8.49639433 -73.15551758 7.76733398 C-66.34916553 6.19411075 -59.51068908 4.97772886 -52.61328125 3.87768555 C-50.6357757 3.56089476 -48.66035303 3.23286064 -46.68481445 2.90405273 C-31.07968709 0.38734728 -15.77005509 -0.00119715 0 0 Z " fill="#1E393D" transform="translate(514.069580078125,187.814697265625)"/>
<path d="M0 0 C3.25362904 -0.00220452 6.50692786 -0.02047443 9.76049805 -0.03930664 C11.85489795 -0.04223839 13.94929943 -0.04422465 16.04370117 -0.04516602 C17.00327225 -0.05235153 17.96284332 -0.05953705 18.95149231 -0.06694031 C24.18175153 -0.04935636 28.89786366 0.44084366 33.97416687 1.70570374 C36.41071928 2.30305391 38.82682067 2.6088837 41.32104492 2.86108398 C42.2669751 2.96396729 43.21290527 3.06685059 44.1875 3.17285156 C45.66899536 3.33370239 45.66899536 3.33370239 47.18041992 3.49780273 C64.60797165 5.55228658 81.16103444 9.93911118 97.78442383 15.47143555 C99.22721908 15.95138245 100.67227244 16.42458865 102.11938477 16.89135742 C107.86284596 18.75921116 113.45837948 20.91922548 119.05541992 23.18530273 C119.91006836 23.52819336 120.7647168 23.87108398 121.64526367 24.22436523 C124.07710985 25.20308059 126.50463341 26.19167633 128.93041992 27.18530273 C130.06995117 27.65194336 131.20948242 28.11858398 132.38354492 28.59936523 C165.3934715 43.35931038 194.73684626 64.11014817 221.14526367 88.62280273 C223.64147287 90.91945524 226.17946202 93.15200672 228.74291992 95.37280273 C232.15678814 98.3944132 235.17652612 101.57710891 238.11791992 105.05639648 C240.16781127 107.46413524 242.29584032 109.78990915 244.43041992 112.12280273 C248.50673696 116.64204726 252.27308199 121.32371939 255.93041992 126.18530273 C256.39706055 126.7950293 256.86370117 127.40475586 257.34448242 128.03295898 C258.89264896 130.06979262 260.41264419 132.12571232 261.93041992 134.18530273 C263.00743164 135.62583008 263.00743164 135.62583008 264.10620117 137.09545898 C271.43526298 147.0267931 277.77154383 157.49711907 283.93041992 168.18530273 C284.30408691 168.83047852 284.67775391 169.4756543 285.06274414 170.14038086 C292.04213243 182.31505339 297.58695254 195.22795957 302.93041992 208.18530273 C303.36676758 209.24313965 303.80311523 210.30097656 304.25268555 211.39086914 C312.5830597 232.03035077 317.1050664 253.28346019 321.48907471 275.02484131 C322.09301642 277.98124083 322.73539513 280.92886325 323.37963867 283.87670898 C323.75243587 285.64588214 324.1237443 287.41537031 324.49291992 289.18530273 C324.64937988 289.88647217 324.80583984 290.5876416 324.96704102 291.31005859 C326.20546188 297.62092584 326.00673223 303.94343479 325.94970703 310.3425293 C325.91111512 315.54046578 326.02050423 320.73133817 326.14916992 325.92749023 C326.1714415 326.83847473 326.19371307 327.74945923 326.21665955 328.68804932 C326.28629282 331.47884413 326.35824169 334.2695727 326.43041992 337.06030273 C326.50223079 339.91104981 326.57345251 342.76181089 326.64440918 345.61257935 C326.6882957 347.36770178 326.73278275 349.12280933 326.7779541 350.87789917 C326.90900442 356.02136063 326.96664623 360.32931854 325.60620117 365.28686523 C323.74857206 372.53238053 322.62678702 379.83355557 321.48449707 387.21652222 C319.19773462 401.83737159 316.49146438 416.07900446 311.93041992 430.18530273 C311.56932129 431.30984863 311.20822266 432.43439453 310.83618164 433.59301758 C305.7628769 449.21230633 300.17904236 464.4378145 292.93041992 479.18530273 C292.47892578 480.12196777 292.02743164 481.05863281 291.56225586 482.02368164 C280.39209915 505.05133154 266.59173265 526.72065802 249.93041992 546.18530273 C249.30393555 546.92780273 248.67745117 547.67030273 248.03198242 548.43530273 C246.36099652 550.38086378 244.65388934 552.28612168 242.93041992 554.18530273 C242.18147461 555.02577148 241.4325293 555.86624023 240.66088867 556.73217773 C229.24482665 569.39767384 217.42275632 581.72262625 203.93041992 592.18530273 C202.73411081 593.1564362 201.54026556 594.13060966 200.34838867 595.10717773 C192.81364257 601.26355785 185.1981094 607.02993054 176.93041992 612.18530273 C176.23916016 612.6177832 175.54790039 613.05026367 174.83569336 613.49584961 C157.25338074 624.4369558 139.11830593 634.35727781 119.93041992 642.18530273 C118.46986183 642.86806362 117.01131958 643.5551639 115.55541992 644.24780273 C108.93805488 647.22064154 101.87466314 649.12991296 94.93041992 651.18530273 C93.70452148 651.55139648 92.47862305 651.91749023 91.21557617 652.29467773 C87.41649128 653.32463178 83.83686937 653.77409753 79.93041992 654.18530273 C79.93041992 654.84530273 79.93041992 655.50530273 79.93041992 656.18530273 C78.86823242 656.37866211 77.80604492 656.57202148 76.71166992 656.77124023 C75.28456216 657.03412851 73.8574802 657.29715687 72.43041992 657.56030273 C71.3862793 657.74979492 71.3862793 657.74979492 70.32104492 657.94311523 C66.92236452 658.57250049 63.60793584 659.27047425 60.26245117 660.15405273 C23.63222867 669.44749036 -20.27631268 668.65336911 -57.06958008 661.18530273 C-57.96805664 661.00386719 -58.8665332 660.82243164 -59.79223633 660.63549805 C-63.66449857 659.8338872 -67.51641683 658.97545358 -71.35864258 658.04077148 C-74.58732178 657.29647596 -77.725008 656.79092972 -81.00708008 656.37280273 C-88.05627667 655.28454012 -94.54368547 652.59860357 -101.16333008 650.03686523 C-104.71817471 648.6639093 -108.29923868 647.44361203 -111.92504883 646.27124023 C-118.07002531 644.24373965 -123.96985553 641.80846917 -129.88208008 639.18530273 C-131.49070923 638.47289429 -131.49070923 638.47289429 -133.13183594 637.74609375 C-165.28237961 623.31101139 -192.79283665 604.65665233 -219.35351562 581.66186523 C-220.54183302 580.63939495 -221.73646232 579.62423189 -222.93603516 578.61499023 C-225.98711793 576.04125493 -228.84129561 573.53081373 -231.38208008 570.43530273 C-234.09123352 567.24128961 -236.94612203 564.29711035 -239.94458008 561.37280273 C-245.08059665 556.29125906 -249.5893054 550.84459706 -254.06958008 545.18530273 C-254.74891602 544.34999023 -255.42825195 543.51467773 -256.12817383 542.65405273 C-280.56654109 512.54674647 -298.18690153 478.3994138 -311.07519531 441.95556641 C-311.88943395 439.68717314 -312.74832418 437.44878005 -313.63598633 435.20874023 C-320.44643293 417.12801224 -323.53480312 397.26067282 -326.06958008 378.18530273 C-326.21911133 377.11441406 -326.36864258 376.04352539 -326.52270508 374.94018555 C-330.10310428 348.78938189 -330.00813851 322.74798554 -327.69458008 296.49780273 C-327.63163757 295.77824402 -327.56869507 295.0586853 -327.50384521 294.31732178 C-326.85453267 287.09961927 -325.95938972 280.18913924 -324.06958008 273.18530273 C-323.72860571 271.24546513 -323.40595125 269.30236038 -323.09692383 267.35717773 C-320.49476384 251.26560176 -315.79313879 235.75844841 -310.50708008 220.37280273 C-310.275784 219.69584351 -310.04448792 219.01888428 -309.80618286 218.32141113 C-306.0164508 207.28349991 -301.47010664 196.77452288 -296.19458008 186.37280273 C-294.25303758 182.53954735 -292.31688351 178.71235286 -290.49145508 174.82202148 C-282.20854318 157.35679059 -270.99603698 141.33933755 -259.06958008 126.18530273 C-258.34899414 125.25202148 -257.6284082 124.31874023 -256.88598633 123.35717773 C-243.75373776 106.77430053 -228.29239257 90.78472362 -212.06958008 77.18530273 C-211.10793945 76.34612305 -210.14629883 75.50694336 -209.15551758 74.64233398 C-202.33423044 68.71555692 -195.32208653 63.33839368 -187.78491211 58.32983398 C-185.98386985 57.12811378 -184.19618329 55.90814416 -182.40942383 54.68530273 C-170.95282289 46.88433541 -159.11939129 40.0522686 -146.66162109 33.97387695 C-143.46906557 32.41307203 -140.38788355 30.79216857 -137.34692383 28.95092773 C-134.06958008 27.18530273 -134.06958008 27.18530273 -130.06958008 27.18530273 C-130.06958008 26.52530273 -130.06958008 25.86530273 -130.06958008 25.18530273 C-128.95583008 24.77280273 -127.84208008 24.36030273 -126.69458008 23.93530273 C-124.44729086 23.09937335 -122.21955022 22.24945346 -120.01489258 21.30639648 C-107.98253526 16.18943314 -95.03708216 12.62259634 -82.26977539 9.88378906 C-79.22065901 9.21827777 -76.18995847 8.49639433 -73.15551758 7.76733398 C-66.34916553 6.19411075 -59.51068908 4.97772886 -52.61328125 3.87768555 C-50.6357757 3.56089476 -48.66035303 3.23286064 -46.68481445 2.90405273 C-31.07968709 0.38734728 -15.77005509 -0.00119715 0 0 Z M-111.85595703 70.18457031 C-113.32029493 70.84656668 -114.79020528 71.4963853 -116.265625 72.13330078 C-137.83646204 81.46900873 -157.8397972 94.41803208 -176.06958008 109.18530273 C-176.58311035 109.59586914 -177.09664063 110.00643555 -177.62573242 110.42944336 C-186.03064778 117.19076545 -193.73838509 124.64819458 -201.38208008 132.24780273 C-202.76061157 133.61243652 -202.76061157 133.61243652 -204.16699219 135.00463867 C-210.22392359 141.08946708 -215.76900629 147.43327889 -221.06958008 154.18530273 C-221.82331909 155.14206909 -221.82331909 155.14206909 -222.59228516 156.11816406 C-237.21694564 174.98772319 -251.06721727 196.5800775 -258.93676758 219.22827148 C-259.82571678 221.54873543 -260.77534226 223.57599854 -261.92895508 225.75952148 C-269.42721258 240.51421333 -273.26987973 257.63669615 -276.50708008 273.81030273 C-276.74152832 274.98028809 -276.97597656 276.15027344 -277.2175293 277.35571289 C-280.38264476 294.09362948 -281.39819476 310.47177982 -281.33032227 327.48950195 C-281.31959365 330.68126411 -281.33028781 333.87246366 -281.34301758 337.06420898 C-281.35120487 349.24978281 -280.73437959 361.11531972 -279.06958008 373.18530273 C-278.86531251 374.74319172 -278.66146189 376.30113543 -278.45800781 377.85913086 C-275.04631337 403.45486973 -267.83782594 430.13956356 -256.06958008 453.18530273 C-255.3507666 454.60649414 -255.3507666 454.60649414 -254.61743164 456.05639648 C-243.05756591 478.8520854 -230.42384332 500.39322305 -213.44775391 519.61865234 C-212.4657384 520.73496652 -211.49253276 521.85905679 -210.52539062 522.98828125 C-199.20408464 536.14307692 -186.80930425 548.7431349 -172.74389648 558.9597168 C-171.0015466 560.23510269 -169.29084486 561.54602174 -167.58129883 562.86499023 C-150.13760155 576.18606183 -130.36580319 587.79247737 -110.06958008 596.18530273 C-108.2984082 596.92780273 -108.2984082 596.92780273 -106.49145508 597.68530273 C-99.9344152 600.36392328 -93.54591385 602.8182818 -86.63208008 604.44702148 C-84.06958008 605.18530273 -84.06958008 605.18530273 -80.89379883 606.61108398 C-76.37441161 608.59783536 -71.68906454 609.62434563 -66.88208008 610.68530273 C-65.92245361 610.89960937 -64.96282715 611.11391602 -63.97412109 611.3347168 C-57.51456189 612.74060527 -51.04297769 613.94453407 -44.50708008 614.93530273 C-43.36879761 615.10835937 -43.36879761 615.10835937 -42.20751953 615.28491211 C-29.15705981 617.14022787 -16.15990764 617.34430202 -3.00415039 617.31567383 C-0.07538681 617.31031336 2.85322347 617.31564822 5.78198242 617.32202148 C20.06736637 617.32936954 33.75920718 616.68521003 47.80541992 613.87280273 C48.94454834 613.6477002 50.08367676 613.42259766 51.25732422 613.19067383 C59.59400489 611.51466664 67.7929319 609.67341425 75.93041992 607.18530273 C76.68500488 606.95649414 77.43958984 606.72768555 78.21704102 606.49194336 C112.39101644 596.00176665 144.00420823 579.54196097 171.93041992 557.18530273 C172.95135742 556.36803711 173.97229492 555.55077148 175.02416992 554.70874023 C182.6675792 548.43370755 189.73019567 541.58938659 196.74291992 534.62280273 C197.61424561 533.76074219 198.48557129 532.89868164 199.38330078 532.01049805 C205.32113327 526.04386032 210.70193979 519.77784332 215.93041992 513.18530273 C216.49543213 512.49025635 217.06044434 511.79520996 217.64257812 511.07910156 C257.50105954 461.98733371 278.12077359 398.48883173 278.11572266 335.67041016 C278.11789761 332.65374383 278.13607554 329.63745103 278.1550293 326.62084961 C278.20787199 309.19891661 276.78204584 292.54158377 273.05541992 275.49780273 C272.79075928 274.25756348 272.52609863 273.01732422 272.25341797 271.73950195 C268.70929277 254.62093779 268.70929277 254.62093779 262.93041992 238.18530273 C262.28156752 236.29749989 261.65552122 234.40166393 261.05541992 232.49780273 C258.9951284 226.2394736 256.59055038 220.21160364 253.93041992 214.18530273 C253.66277832 213.57090332 253.39513672 212.95650391 253.11938477 212.32348633 C247.71051898 200.00006823 241.09300727 188.56620088 233.93041992 177.18530273 C233.48907715 176.48066895 233.04773438 175.77603516 232.59301758 175.05004883 C227.08575554 166.32367868 220.99601789 158.42098425 214.20043945 150.66577148 C212.32668667 148.48152756 210.57743984 146.20239565 208.80541992 143.93530273 C204.62737077 138.79773777 200.04608956 134.11851676 195.36791992 129.43530273 C194.65941895 128.72599609 193.95091797 128.01668945 193.22094727 127.28588867 C188.61389614 122.72688327 183.85833601 118.39424212 178.93041992 114.18530273 C178.07577148 113.44924805 177.22112305 112.71319336 176.34057617 111.95483398 C168.22710426 105.1913574 159.64126666 99.14944608 150.93041992 93.18530273 C149.56336914 92.24557617 149.56336914 92.24557617 148.16870117 91.28686523 C141.92335686 87.16353002 135.3611848 83.59717343 128.80541992 79.99780273 C127.8744751 79.48604492 126.94353027 78.97428711 125.984375 78.44702148 C101.03272401 64.90430851 72.87286977 55.94289012 44.93041992 51.18530273 C43.8759668 50.98163086 42.82151367 50.77795898 41.73510742 50.56811523 C34.7429294 49.31398994 28.00887446 49.01076708 20.92895508 49.17089844 C17.7288447 49.23596608 14.71938104 49.154841 11.54760742 48.69702148 C6.98334494 48.05132128 2.53364472 48.03602976 -2.06958008 48.06030273 C-3.50394409 48.06646606 -3.50394409 48.06646606 -4.96728516 48.07275391 C-42.34968679 48.35597699 -77.55461671 54.64558658 -111.85595703 70.18457031 Z " fill="#B1F3F3" transform="translate(514.069580078125,187.814697265625)"/>
<path d="M0 0 C0.78665039 0.17789062 1.57330078 0.35578125 2.38378906 0.5390625 C35.69802191 8.10246697 67.19524528 26.3905416 93.46435547 47.75683594 C95.80982415 49.6555842 98.19051397 51.50955001 100.5625 53.375 C103.9278787 56.07716889 107.02523666 58.86443864 110 62 C111.12416407 63.10501772 112.24924106 64.20910713 113.375 65.3125 C117.11030832 69.04780832 120.55379759 72.99994363 124 77 C124.50821289 77.56952393 125.01642578 78.13904785 125.54003906 78.72583008 C137.55261708 92.24582305 147.45026471 107.09254306 156 123 C156.36818848 123.68126953 156.73637695 124.36253906 157.11572266 125.06445312 C162.60835435 135.3362563 166.96036416 145.99667877 171.14501953 156.85717773 C171.87340356 158.68271362 172.68440839 160.4749266 173.51171875 162.2578125 C175.87113729 167.70692703 177.0859485 173.56489144 178.5 179.3125 C178.80824707 180.55692871 179.11649414 181.80135742 179.43408203 183.08349609 C183.3992355 199.38515152 186.14721419 215.63275121 186.16796875 232.44140625 C186.17129715 233.40795639 186.17462555 234.37450653 186.17805481 235.37034607 C186.18308531 237.40485158 186.18546434 239.43936523 186.18530273 241.47387695 C186.18747706 244.53025502 186.20564136 247.58626424 186.22460938 250.64257812 C186.25843965 262.25667589 185.71103771 273.51225954 184 285 C183.85393311 286.03793701 183.70786621 287.07587402 183.55737305 288.14526367 C181.66171059 301.07730192 178.72370938 313.43640497 174.68310547 325.85791016 C173.737733 328.82241982 172.91196681 331.81931437 172.0625 334.8125 C169.99461057 341.46350763 167.11644003 347.644352 164.04345703 353.87353516 C162.92604021 356.15072293 161.83609174 358.44004058 160.74609375 360.73046875 C150.46049631 382.09706077 137.70338048 401.04755547 121.48828125 418.32421875 C119.40338915 420.56621418 117.40889794 422.8467535 115.4375 425.1875 C111.37284835 429.89654765 106.68711231 433.92589031 102 438 C96.58937191 433.74056937 92.4736182 429.0395242 88.1875 423.66015625 C86.3761788 421.45746029 84.55215286 419.47139684 82.5 417.5 C77.88471733 413.05846915 73.98733772 407.99999491 70 403 C72.36493153 400.62679948 74.73229177 398.25891489 77.140625 395.9296875 C82.07100014 391.1271369 86.53314474 386.10708017 90.82421875 380.7265625 C92.17543867 379.0332923 93.54929008 377.357517 94.95703125 375.7109375 C105.24948365 363.51092263 112.73157498 349.34447401 119.18164062 334.82470703 C119.89433329 333.23560649 120.6397245 331.6612507 121.390625 330.08984375 C134.43532341 302.7207455 138.1153815 274.10071109 138.25 244.125 C138.2554483 243.38714264 138.26089661 242.64928528 138.26651001 241.8890686 C138.34432387 227.73581174 136.72657518 214.21214459 133.625 200.375 C133.40585937 199.38717529 133.18671875 198.39935059 132.9609375 197.3815918 C130.34086346 185.7940478 126.88017058 174.85148494 122 164 C121.66758301 163.25218262 121.33516602 162.50436523 120.99267578 161.73388672 C107.12464136 130.757282 87.17374514 103.64551808 60 83 C59.12085938 82.32710938 58.24171875 81.65421875 57.3359375 80.9609375 C37.35443513 66.0467902 14.94542434 54.8816762 -9 48 C-10.03398926 47.6915918 -10.03398926 47.6915918 -11.08886719 47.37695312 C-37.72966179 39.51573505 -67.68613173 38.24720387 -95 43 C-95.75829102 43.12358887 -96.51658203 43.24717773 -97.29785156 43.37451172 C-117.78620046 46.77276018 -137.64760288 53.41014715 -156.0390625 63.08203125 C-158 64 -158 64 -160 64 C-162.85670888 58.36253533 -165.70406862 52.72042232 -168.54492188 47.07495117 C-169.51281605 45.15426586 -170.48285973 43.2346622 -171.45507812 41.31616211 C-172.85069813 38.5612367 -174.23858741 35.80253684 -175.625 33.04296875 C-176.06247559 32.18350143 -176.49995117 31.32403412 -176.95068359 30.43852234 C-177.55130615 29.23761711 -177.55130615 29.23761711 -178.1640625 28.01245117 C-178.51936035 27.3085173 -178.8746582 26.60458344 -179.24072266 25.87931824 C-180 24 -180 24 -180 21 C-167.86609574 15.03569758 -155.79894244 9.38102373 -143 5 C-141.82566406 4.58363281 -140.65132813 4.16726563 -139.44140625 3.73828125 C-93.54475678 -11.65773767 -46.64986287 -10.93755239 0 0 Z " fill="#B1F3F3" transform="translate(575,274)"/>
<path d="M0 0 C4.60088622 2.46073764 8.07190419 5.67975391 11.8125 9.25 C13.0604254 10.42529996 14.30911764 11.59978625 15.55859375 12.7734375 C16.45167236 13.61406738 16.45167236 13.61406738 17.36279297 14.47167969 C20.50065643 17.40085136 23.7468643 20.20062786 27 23 C28.50096479 24.31139657 30.00097107 25.62389103 31.5 26.9375 C32.1703125 27.52402344 32.840625 28.11054688 33.53125 28.71484375 C34.0159375 29.13894531 34.500625 29.56304687 35 30 C34.50179391 34.26017041 31.81479464 36.76435459 29.0625 39.8125 C13.1948466 58.01698826 -0.26891658 81.22174466 -6.33203125 104.69921875 C-6.93885118 106.78937629 -7.66339219 108.75735959 -8.44921875 110.78515625 C-11.05936263 117.66238725 -12.49179524 124.81937049 -14 132 C-14.15533203 132.69448242 -14.31066406 133.38896484 -14.47070312 134.10449219 C-19.79229207 158.58149762 -19.20694142 187.56700532 -14 212 C-13.85014648 212.73718262 -13.70029297 213.47436523 -13.54589844 214.23388672 C-10.18692071 230.52599842 -5.11578135 245.97040574 2 261 C2.38349609 261.81082031 2.76699219 262.62164063 3.16210938 263.45703125 C8.10747486 273.8194982 13.21182799 283.70952144 20 293 C20.71929687 294.00289062 21.43859375 295.00578125 22.1796875 296.0390625 C28.48890689 304.66239004 35.44033845 312.46349208 43 320 C44.22396484 321.27617188 44.22396484 321.27617188 45.47265625 322.578125 C51.8432619 329.15051454 58.48067629 334.73555304 66 340 C66.53512207 340.38478516 67.07024414 340.76957031 67.62158203 341.16601562 C82.99689284 352.19544316 99.95366353 361.27205742 118 367 C120.35590213 367.87031652 122.7100449 368.74540878 125.0625 369.625 C144.32857645 376.49190323 164.3828584 378.2458925 184.6875 378.3125 C185.45534821 378.31511841 186.22319641 378.31773682 187.01431274 378.32043457 C200.67183207 378.32539611 213.64982625 376.99773041 227 374 C227.75216797 373.83983398 228.50433594 373.67966797 229.27929688 373.51464844 C237.95130231 371.65297362 246.23527845 369.0275446 254.50756836 365.84228516 C259.68645384 363.89548461 259.68645384 363.89548461 263 365 C263.94799805 366.61621094 263.94799805 366.61621094 264.76171875 368.734375 C265.07238281 369.52658447 265.38304687 370.31879395 265.703125 371.13500977 C266.02796875 371.99795654 266.3528125 372.86090332 266.6875 373.75 C267.19990234 375.07439087 267.19990234 375.07439087 267.72265625 376.42553711 C268.44817743 378.30570275 269.16856076 380.1878576 269.88427734 382.07177734 C271.0072712 385.01908332 272.15157907 387.95735591 273.30078125 390.89453125 C274.0346026 392.7835636 274.76769733 394.6728784 275.5 396.5625 C275.85022217 397.46000977 276.20044434 398.35751953 276.5612793 399.28222656 C276.88136963 400.11850586 277.20145996 400.95478516 277.53125 401.81640625 C277.81548828 402.55318604 278.09972656 403.28996582 278.39257812 404.04907227 C279 406 279 406 279 409 C268.29370105 413.29728689 257.57412387 416.63110294 246.37475586 419.38891602 C244.73810522 419.81006709 243.10876013 420.26031649 241.48657227 420.73413086 C233.92256291 422.93546667 226.37168877 424.1904995 218.5625 425.1875 C217.54577713 425.31732269 217.54577713 425.31732269 216.5085144 425.44976807 C205.02543752 426.87618971 193.62903433 427.38187911 182.0625 427.375 C181.32975861 427.37672211 180.59701721 427.37844421 179.84207153 427.38021851 C143.71301007 427.37056444 103.41447269 418.85135842 72.16015625 400.17578125 C69.84117675 398.86689394 69.84117675 398.86689394 66.62109375 397.578125 C60.71438769 395.00389711 55.41503872 391.45972967 50 388 C49.39559082 387.61924316 48.79118164 387.23848633 48.16845703 386.84619141 C38.93337695 381.01004932 30.5908912 374.55717276 22.4453125 367.28222656 C20.67978085 365.71591369 18.86915851 364.20602763 17.0625 362.6875 C6.38459584 353.24694954 -3.2856482 343.04549218 -11.78857422 331.61279297 C-12.91810798 330.10902432 -14.08471241 328.63329997 -15.25390625 327.16015625 C-33.24421929 304.2136568 -47.75620487 275.51133554 -55.5 247.4375 C-55.79479248 246.37321777 -56.08958496 245.30893555 -56.39331055 244.21240234 C-59.68839595 231.94592161 -62.01139877 219.53763773 -64 207 C-64.13277344 206.20094238 -64.26554687 205.40188477 -64.40234375 204.57861328 C-68.37397255 179.80613645 -67.73968684 152.28638857 -62.58984375 127.81201172 C-61.99721185 124.98670784 -61.46375059 122.15474856 -60.9375 119.31640625 C-57.49778186 101.50434318 -52.57451158 83.06765163 -44 67 C-43.3990093 65.78613874 -42.80264522 64.56997579 -42.2109375 63.3515625 C-31.02668735 40.57232396 -18.46626902 17.80027244 0 0 Z " fill="#B1F3F3" transform="translate(329,348)"/>
<path d="M0 0 C0.33 0 0.66 0 1 0 C1.33 4.29 1.66 8.58 2 13 C1.34 13 0.68 13 0 13 C-0.0246826 17.94791294 -0.04285166 22.8957902 -0.05493164 27.84375 C-0.05996653 29.52767562 -0.06679481 31.21159686 -0.07543945 32.89550781 C-0.08754196 35.31316203 -0.09323668 37.73075856 -0.09765625 40.1484375 C-0.10281754 40.9036972 -0.10797882 41.65895691 -0.11329651 42.43710327 C-0.19320188 46.34648109 -0.19320188 46.34648109 1 50 C1.04516433 51.43679032 1.03864149 52.87551946 1 54.3125 C0.95623491 57.03906536 1.04184417 59.19248317 1.625 61.875 C2 64 2 64 0 67 C-1.87234646 56.61892645 -2.31332795 46.56946868 -2.26074219 36.05029297 C-2.25001406 33.50333868 -2.26070528 30.95708942 -2.2734375 28.41015625 C-2.28046144 18.74803025 -1.71935561 9.53282817 0 0 Z " fill="#318486" transform="translate(313,486)"/>
<path d="M0 0 C0.33 0 0.66 0 1 0 C1.04942899 4.92959122 1.08573318 9.85903825 1.10986328 14.78881836 C1.11992237 16.46592725 1.13357122 18.14301861 1.15087891 19.82006836 C1.17513152 22.23035002 1.1864839 24.64039986 1.1953125 27.05078125 C1.20563507 27.80087967 1.21595764 28.55097809 1.22659302 29.32380676 C1.227408 33.10300779 1.15057067 34.77414399 -1 38 C-1.66 38 -2.32 38 -3 38 C-2.855625 37.443125 -2.71125 36.88625 -2.5625 36.3125 C-1.97040275 33.87832241 -1.40113233 31.47364935 -1 29 C-1.33 28.67 -1.66 28.34 -2 28 C-2.12959096 24.63063508 -2.1144576 21.55957048 -1.4375 18.25 C-0.77859647 15.84506244 -0.77859647 15.84506244 -2 13 C-1.67 12.67 -1.34 12.34 -1 12 C-0.76572222 9.98405418 -0.58663876 7.961526 -0.4375 5.9375 C-0.31181641 4.28041016 -0.31181641 4.28041016 -0.18359375 2.58984375 C-0.12300781 1.73519531 -0.06242188 0.88054687 0 0 Z " fill="#257074" transform="translate(713,501)"/>
<path d="M0 0 C0.33 0 0.66 0 1 0 C1.14287139 5.9265028 1.28527606 11.85301656 1.42724609 17.77954102 C1.47561993 19.79614567 1.52412185 21.81274726 1.57275391 23.8293457 C1.64258874 26.72606626 1.71196466 29.6227975 1.78125 32.51953125 C1.80312378 33.42274612 1.82499756 34.325961 1.84753418 35.25654602 C1.86755493 36.09719101 1.88757568 36.937836 1.90820312 37.80395508 C1.92596802 38.54341873 1.94373291 39.28288239 1.96203613 40.04475403 C2.04195878 44.16099505 1.38214539 47.1127161 0 51 C-0.33 51 -0.66 51 -1 51 C-0.67 34.17 -0.34 17.34 0 0 Z " fill="#64BBBA" transform="translate(839,503)"/>
<path d="M0 0 C0.33 1.32 0.66 2.64 1 4 C-3.62 5.32 -8.24 6.64 -13 8 C-10.23947839 2.47895678 -6.27772233 0 0 0 Z " fill="#287279" transform="translate(435,275)"/>
<path d="M0 0 C0.33 0 0.66 0 1 0 C1.86225857 4.11967982 1.90472052 6.92875764 1 11 C0.74438739 12.32860502 0.4934684 13.65811777 0.24609375 14.98828125 C0.11396484 15.69404297 -0.01816406 16.39980469 -0.15429688 17.12695312 C-0.28900391 17.84818359 -0.42371094 18.56941406 -0.5625 19.3125 C-0.70107422 20.05306641 -0.83964844 20.79363281 -0.98242188 21.55664062 C-1.32189055 23.37104214 -1.66098323 25.18551399 -2 27 C-2.33 27 -2.66 27 -3 27 C-3.15366997 20.60348741 -2.64846374 14.72301098 -1.5 8.4375 C-1.35691406 7.61958984 -1.21382812 6.80167969 -1.06640625 5.95898438 C-0.71771688 3.97145496 -0.35983915 1.98554104 0 0 Z " fill="#3A9195" transform="translate(237,465)"/>
<path d="M0 0 C2.69925398 4.04888098 4.18687442 7.89766283 3.75 12.8125 C3 15 3 15 1 17 C-0.53266582 13.93466836 -0.10276471 10.73245728 -0.0625 7.375 C-0.05798828 6.66859375 -0.05347656 5.9621875 -0.04882812 5.234375 C-0.03703875 3.48954725 -0.01910324 1.744763 0 0 Z " fill="#277176" transform="translate(703,453)"/>
<path d="M0 0 C0 0.66 0 1.32 0 2 C0.66 2.33 1.32 2.66 2 3 C0.37604003 3.50336767 -1.24920541 4.00258976 -2.875 4.5 C-3.77992188 4.7784375 -4.68484375 5.056875 -5.6171875 5.34375 C-8 6 -8 6 -10 6 C-9.375 4.125 -9.375 4.125 -8 2 C-5.2520429 0.85501787 -2.989803 0 0 0 Z " fill="#22666B" transform="translate(575,714)"/>
<path d="M0 0 C0.99 0.33 1.98 0.66 3 1 C2.09066991 2.27609323 1.17217147 3.54565553 0.25 4.8125 C-0.26046875 5.52019531 -0.7709375 6.22789062 -1.296875 6.95703125 C-3.02482358 9.02977691 -4.78526476 10.47375854 -7 12 C-5.63855967 6.80177328 -3.53269829 3.90456127 0 0 Z " fill="#286C73" transform="translate(273,289)"/>
<path d="M0 0 C0.33 0 0.66 0 1 0 C2.00118617 5.96652837 1.97673064 10.17384655 0 16 C-0.3926411 17.64171414 -0.76727053 19.2878267 -1.125 20.9375 C-1.29257812 21.70964844 -1.46015625 22.48179687 -1.6328125 23.27734375 C-1.75398437 23.84582031 -1.87515625 24.41429687 -2 25 C-2.33 25 -2.66 25 -3 25 C-2.34938113 16.61044093 -1.25101251 8.31984045 0 0 Z " fill="#2E7E81" transform="translate(837,560)"/>
<path d="M0 0 C0.33 0.66 0.66 1.32 1 2 C0.26821134 4.07196631 -0.55899003 6.1108552 -1.4375 8.125 C-1.91058594 9.22070312 -2.38367188 10.31640625 -2.87109375 11.4453125 C-3.24363281 12.28835938 -3.61617187 13.13140625 -4 14 C-4.66 13.01 -5.32 12.02 -6 11 C-5.25 8.625 -5.25 8.625 -4 6 C-3.505 4.63875 -3.505 4.63875 -3 3.25 C-2 1 -2 1 0 0 Z " fill="#22666C" transform="translate(212,385)"/>
<path d="M0 0 C0.33 0 0.66 0 1 0 C1.33 4.29 1.66 8.58 2 13 C1.34 13 0.68 13 0 13 C-0.33 13.99 -0.66 14.98 -1 16 C-1.09688221 10.55306686 -1.12862175 5.36095333 0 0 Z " fill="#2C7B7D" transform="translate(313,486)"/>
<path d="M0 0 C0.33 0 0.66 0 1 0 C2.6491828 4.25315564 3.49974625 6.6648225 1.625 10.9375 C1.08875 11.948125 0.5525 12.95875 0 14 C-0.33 14 -0.66 14 -1 14 C-1.08333357 9.1666528 -0.95261487 4.76307437 0 0 Z " fill="#2F7B7F" transform="translate(839,540)"/>
<path d="M0 0 C0.33 0 0.66 0 1 0 C1.05399736 1.45792884 1.09279177 2.91642712 1.125 4.375 C1.14820313 5.18710937 1.17140625 5.99921875 1.1953125 6.8359375 C1 9 1 9 -1 11 C-1.66 11 -2.32 11 -3 11 C-2.11223998 7.30099992 -1.05418136 3.65449539 0 0 Z " fill="#236B70" transform="translate(186,480)"/>
<path d="M0 0 C0 0.66 0 1.32 0 2 C0.66 2 1.32 2 2 2 C1.67 3.32 1.34 4.64 1 6 C-0.65 4.35 -2.3 2.7 -4 1 C-2 0 -2 0 0 0 Z " fill="#226C72" transform="translate(384,675)"/>
<path d="M0 0 C0.33 0 0.66 0 1 0 C1.83830905 4.00525433 2.17378888 7.05180103 1 11 C0.34 11.99 -0.32 12.98 -1 14 C-1.18451025 4.58997722 -1.18451025 4.58997722 0 0 Z " fill="#287B80" transform="translate(237,465)"/>
<path d="M0 0 C0.99 0.33 1.98 0.66 3 1 C-0.465 3.97 -0.465 3.97 -4 7 C-4 6.01 -4 5.02 -4 4 C-3.34 4 -2.68 4 -2 4 C-1.34 2.68 -0.68 1.36 0 0 Z " fill="#2D7078" transform="translate(297,267)"/>
</svg>
